<mxfile host="Electron" agent="Mozilla/5.0 (Windows NT 10.0; Win64; x64) AppleWebKit/537.36 (KHTML, like Gecko) draw.io/27.0.9 Chrome/134.0.6998.205 Electron/35.4.0 Safari/537.36" version="27.0.9">
  <diagram name="Page-1" id="1hs5s9o86z9CkmKRlvlU">
    <mxGraphModel dx="692" dy="595" grid="0" gridSize="10" guides="1" tooltips="1" connect="1" arrows="1" fold="1" page="1" pageScale="1" pageWidth="827" pageHeight="1169" math="0" shadow="0">
      <root>
        <mxCell id="0" />
        <mxCell id="1" parent="0" />
        <mxCell id="x0ar0F_R1HiH6jSFdx14-1" value="" style="rounded=0;whiteSpace=wrap;html=1;movable=1;resizable=1;rotatable=1;deletable=1;editable=1;locked=0;connectable=1;" parent="1" vertex="1">
          <mxGeometry x="105.86" y="100" width="444.14" height="429" as="geometry" />
        </mxCell>
        <mxCell id="m7XsVHhVL0BLHQTgYPTq-2" value="responsable" style="shape=umlActor;verticalLabelPosition=bottom;verticalAlign=top;html=1;" parent="1" vertex="1">
          <mxGeometry x="24" y="303.5" width="27" height="60" as="geometry" />
        </mxCell>
        <mxCell id="m7XsVHhVL0BLHQTgYPTq-6" value="" style="shape=ellipse;container=1;horizontal=1;horizontalStack=0;resizeParent=1;resizeParentMax=0;resizeLast=0;html=1;dashed=0;collapsible=0;" parent="1" vertex="1">
          <mxGeometry x="395" y="177" width="120" height="36" as="geometry" />
        </mxCell>
        <mxCell id="m7XsVHhVL0BLHQTgYPTq-7" value="login" style="html=1;strokeColor=none;fillColor=none;align=center;verticalAlign=middle;rotatable=0;whiteSpace=wrap;" parent="m7XsVHhVL0BLHQTgYPTq-6" vertex="1">
          <mxGeometry x="-5.8" y="13.5" width="120" height="9" as="geometry" />
        </mxCell>
        <mxCell id="m7XsVHhVL0BLHQTgYPTq-11" value="" style="shape=ellipse;container=1;horizontal=1;horizontalStack=0;resizeParent=1;resizeParentMax=0;resizeLast=0;html=1;dashed=0;collapsible=0;" parent="1" vertex="1">
          <mxGeometry x="395" y="218" width="120" height="35" as="geometry" />
        </mxCell>
        <mxCell id="m7XsVHhVL0BLHQTgYPTq-12" value="logout" style="html=1;strokeColor=none;fillColor=none;align=center;verticalAlign=middle;rotatable=0;whiteSpace=wrap;" parent="m7XsVHhVL0BLHQTgYPTq-11" vertex="1">
          <mxGeometry y="13.125" width="120" height="8.75" as="geometry" />
        </mxCell>
        <mxCell id="m7XsVHhVL0BLHQTgYPTq-19" value="" style="shape=ellipse;container=1;horizontal=1;horizontalStack=0;resizeParent=1;resizeParentMax=0;resizeLast=0;html=1;dashed=0;collapsible=0;" parent="1" vertex="1">
          <mxGeometry x="393" y="272" width="120" height="60" as="geometry" />
        </mxCell>
        <mxCell id="m7XsVHhVL0BLHQTgYPTq-20" value="envoyer sms vers un membre" style="html=1;strokeColor=none;fillColor=none;align=center;verticalAlign=middle;rotatable=0;whiteSpace=wrap;" parent="m7XsVHhVL0BLHQTgYPTq-19" vertex="1">
          <mxGeometry x="2" y="29.00142857142857" width="120" height="15" as="geometry" />
        </mxCell>
        <mxCell id="m7XsVHhVL0BLHQTgYPTq-45" value="&quot;include&quot;" style="endArrow=classic;html=1;rounded=0;entryX=0;entryY=1;entryDx=0;entryDy=0;endFill=1;exitX=0.448;exitY=0.034;exitDx=0;exitDy=0;exitPerimeter=0;dashed=1;dashPattern=8 8;" parent="1" target="m7XsVHhVL0BLHQTgYPTq-7" edge="1" source="IpsxSTV4VF9uKnn7z6dg-2">
          <mxGeometry width="50" height="50" relative="1" as="geometry">
            <mxPoint x="-21" y="206" as="sourcePoint" />
            <mxPoint x="355" y="274" as="targetPoint" />
          </mxGeometry>
        </mxCell>
        <mxCell id="m7XsVHhVL0BLHQTgYPTq-46" value="&quot;include&quot;" style="endArrow=classic;html=1;rounded=0;entryX=0;entryY=0.5;entryDx=0;entryDy=0;endFill=1;dashed=1;dashPattern=8 8;" parent="1" target="m7XsVHhVL0BLHQTgYPTq-12" edge="1" source="IpsxSTV4VF9uKnn7z6dg-2">
          <mxGeometry width="50" height="50" relative="1" as="geometry">
            <mxPoint x="-9" y="223" as="sourcePoint" />
            <mxPoint x="309" y="264" as="targetPoint" />
          </mxGeometry>
        </mxCell>
        <mxCell id="m7XsVHhVL0BLHQTgYPTq-48" value="&quot;extend&quot;" style="endArrow=classic;html=1;rounded=0;entryX=0;entryY=0.5;entryDx=0;entryDy=0;endFill=1;exitX=0.945;exitY=0.302;exitDx=0;exitDy=0;exitPerimeter=0;dashed=1;dashPattern=8 8;" parent="1" target="m7XsVHhVL0BLHQTgYPTq-19" edge="1" source="IpsxSTV4VF9uKnn7z6dg-1">
          <mxGeometry width="50" height="50" relative="1" as="geometry">
            <mxPoint x="-6" y="244" as="sourcePoint" />
            <mxPoint x="579" y="394" as="targetPoint" />
            <Array as="points" />
          </mxGeometry>
        </mxCell>
        <mxCell id="m7XsVHhVL0BLHQTgYPTq-110" value="" style="shape=ellipse;container=1;horizontal=1;horizontalStack=0;resizeParent=1;resizeParentMax=0;resizeLast=0;html=1;dashed=0;collapsible=0;" parent="1" vertex="1">
          <mxGeometry x="395" y="339" width="120" height="60" as="geometry" />
        </mxCell>
        <mxCell id="m7XsVHhVL0BLHQTgYPTq-111" value="envoyer sms vers les membres d&#39;un groupe" style="html=1;strokeColor=none;fillColor=none;align=center;verticalAlign=middle;rotatable=0;whiteSpace=wrap;" parent="m7XsVHhVL0BLHQTgYPTq-110" vertex="1">
          <mxGeometry x="3.29" y="22.50142857142857" width="120" height="15" as="geometry" />
        </mxCell>
        <mxCell id="m7XsVHhVL0BLHQTgYPTq-112" value="&quot;extend&quot;" style="endArrow=classic;html=1;rounded=0;entryX=0;entryY=0.5;entryDx=0;entryDy=0;endFill=1;exitX=0.952;exitY=0.674;exitDx=0;exitDy=0;exitPerimeter=0;dashed=1;dashPattern=8 8;" parent="1" target="m7XsVHhVL0BLHQTgYPTq-110" edge="1" source="IpsxSTV4VF9uKnn7z6dg-1">
          <mxGeometry width="50" height="50" relative="1" as="geometry">
            <mxPoint x="-5" y="264" as="sourcePoint" />
            <mxPoint x="591" y="476" as="targetPoint" />
            <Array as="points" />
          </mxGeometry>
        </mxCell>
        <mxCell id="m7XsVHhVL0BLHQTgYPTq-150" value="" style="shape=ellipse;container=1;horizontal=1;horizontalStack=0;resizeParent=1;resizeParentMax=0;resizeLast=0;html=1;dashed=0;collapsible=0;" parent="1" vertex="1">
          <mxGeometry x="387.85999999999996" y="425" width="134.29" height="40" as="geometry" />
        </mxCell>
        <mxCell id="m7XsVHhVL0BLHQTgYPTq-151" value="envoyer sms personalisé" style="html=1;strokeColor=none;fillColor=none;align=center;verticalAlign=middle;rotatable=0;whiteSpace=wrap;" parent="m7XsVHhVL0BLHQTgYPTq-150" vertex="1">
          <mxGeometry x="-3.288215833333334" y="10.460439560439559" width="134.29" height="10" as="geometry" />
        </mxCell>
        <mxCell id="m7XsVHhVL0BLHQTgYPTq-152" value="&quot;extend&quot;" style="endArrow=classic;html=1;rounded=0;entryX=0;entryY=0.5;entryDx=0;entryDy=0;endFill=1;exitX=1;exitY=1;exitDx=0;exitDy=0;dashed=1;dashPattern=8 8;" parent="1" target="m7XsVHhVL0BLHQTgYPTq-150" edge="1" source="IpsxSTV4VF9uKnn7z6dg-1">
          <mxGeometry width="50" height="50" relative="1" as="geometry">
            <mxPoint x="-15" y="279" as="sourcePoint" />
            <mxPoint x="591" y="566" as="targetPoint" />
            <Array as="points" />
          </mxGeometry>
        </mxCell>
        <mxCell id="x0ar0F_R1HiH6jSFdx14-2" value="&lt;font&gt;gestion des notifications&lt;/font&gt;" style="text;html=1;align=center;verticalAlign=middle;whiteSpace=wrap;rounded=0;fontSize=16;fontStyle=1" parent="1" vertex="1">
          <mxGeometry x="115" y="114" width="202" height="30" as="geometry" />
        </mxCell>
        <mxCell id="IpsxSTV4VF9uKnn7z6dg-1" value="gérer les notifications" style="ellipse;whiteSpace=wrap;html=1;" vertex="1" parent="1">
          <mxGeometry x="126" y="312" width="120" height="43" as="geometry" />
        </mxCell>
        <mxCell id="IpsxSTV4VF9uKnn7z6dg-2" value="authentifier" style="ellipse;whiteSpace=wrap;html=1;" vertex="1" parent="1">
          <mxGeometry x="170.70999999999998" y="218" width="120" height="35" as="geometry" />
        </mxCell>
        <mxCell id="IpsxSTV4VF9uKnn7z6dg-4" value="&quot;include&quot;" style="endArrow=classic;html=1;rounded=0;entryX=0.421;entryY=0.926;entryDx=0;entryDy=0;entryPerimeter=0;exitX=0.633;exitY=-0.019;exitDx=0;exitDy=0;exitPerimeter=0;dashed=1;dashPattern=8 8;" edge="1" parent="1" source="IpsxSTV4VF9uKnn7z6dg-1" target="IpsxSTV4VF9uKnn7z6dg-2">
          <mxGeometry width="50" height="50" relative="1" as="geometry">
            <mxPoint x="216" y="351" as="sourcePoint" />
            <mxPoint x="266" y="301" as="targetPoint" />
          </mxGeometry>
        </mxCell>
        <mxCell id="IpsxSTV4VF9uKnn7z6dg-6" value="envoi vers un seul membre" style="rounded=0;whiteSpace=wrap;html=1;" vertex="1" parent="1">
          <mxGeometry x="606" y="415" width="120" height="60" as="geometry" />
        </mxCell>
        <mxCell id="IpsxSTV4VF9uKnn7z6dg-7" value="" style="endArrow=none;dashed=1;html=1;dashPattern=1 3;strokeWidth=2;rounded=0;entryX=0.017;entryY=0.12;entryDx=0;entryDy=0;entryPerimeter=0;exitX=1;exitY=1;exitDx=0;exitDy=0;" edge="1" parent="1" source="m7XsVHhVL0BLHQTgYPTq-151" target="IpsxSTV4VF9uKnn7z6dg-6">
          <mxGeometry width="50" height="50" relative="1" as="geometry">
            <mxPoint x="344" y="334" as="sourcePoint" />
            <mxPoint x="394" y="284" as="targetPoint" />
          </mxGeometry>
        </mxCell>
        <mxCell id="IpsxSTV4VF9uKnn7z6dg-8" value="" style="endArrow=none;html=1;rounded=0;exitX=0.5;exitY=0.5;exitDx=0;exitDy=0;exitPerimeter=0;entryX=0.023;entryY=0.33;entryDx=0;entryDy=0;entryPerimeter=0;" edge="1" parent="1" source="m7XsVHhVL0BLHQTgYPTq-2" target="IpsxSTV4VF9uKnn7z6dg-1">
          <mxGeometry width="50" height="50" relative="1" as="geometry">
            <mxPoint x="344" y="334" as="sourcePoint" />
            <mxPoint x="394" y="284" as="targetPoint" />
          </mxGeometry>
        </mxCell>
      </root>
    </mxGraphModel>
  </diagram>
</mxfile>
